<mxfile host="app.diagrams.net" modified="2023-11-30T12:39:01.928Z" agent="Mozilla/5.0 (Windows NT 10.0; Win64; x64) AppleWebKit/537.36 (KHTML, like Gecko) Chrome/119.0.0.0 Safari/537.36" etag="RWd_nQ0p99N564oRg3BF" version="22.1.5" type="github" pages="2">
  <diagram name="login" id="j-L-AoNcUFrODYSXgKv2">
    <mxGraphModel dx="3585" dy="1920" grid="1" gridSize="10" guides="0" tooltips="1" connect="1" arrows="1" fold="1" page="1" pageScale="1" pageWidth="900" pageHeight="1600" math="0" shadow="0">
      <root>
        <mxCell id="0" />
        <mxCell id="1" parent="0" />
        <mxCell id="qPpUnZFkeBsrYpuf3FNo-209" value="" style="rounded=0;whiteSpace=wrap;html=1;movable=0;resizable=0;rotatable=0;deletable=0;editable=0;locked=1;connectable=0;fillColor=#000000;fontColor=#ffffff;strokeColor=#3A5431;" vertex="1" parent="1">
          <mxGeometry width="900" height="1600" as="geometry" />
        </mxCell>
        <mxCell id="qPpUnZFkeBsrYpuf3FNo-207" value="ようこそ！" style="text;strokeColor=none;fillColor=none;align=center;verticalAlign=middle;whiteSpace=wrap;rounded=0;fontSize=100;fontStyle=0;fontFamily=Helvetica;html=1;fontColor=#FFFFFF;" vertex="1" parent="1">
          <mxGeometry x="80" y="160" width="760" height="180" as="geometry" />
        </mxCell>
        <mxCell id="qPpUnZFkeBsrYpuf3FNo-210" value="" style="rounded=0;whiteSpace=wrap;html=1;fillColor=#006600;" vertex="1" parent="1">
          <mxGeometry y="1540" width="900" height="60" as="geometry" />
        </mxCell>
        <mxCell id="qPpUnZFkeBsrYpuf3FNo-215" value="" style="rounded=0;whiteSpace=wrap;html=1;fillColor=#006600;fontColor=#ffffff;strokeColor=#2D7600;gradientColor=none;" vertex="1" parent="1">
          <mxGeometry width="900" height="60" as="geometry" />
        </mxCell>
        <mxCell id="qPpUnZFkeBsrYpuf3FNo-220" value="&lt;font style=&quot;font-size: 70px;&quot; color=&quot;#ffffff&quot;&gt;がまん銀行(ロゴ)&lt;/font&gt;" style="ellipse;whiteSpace=wrap;html=1;aspect=fixed;fillColor=#000000;perimeterSpacing=1;strokeWidth=1;strokeColor=#FFFFFF;" vertex="1" parent="1">
          <mxGeometry x="250" y="380" width="390" height="390" as="geometry" />
        </mxCell>
        <mxCell id="qPpUnZFkeBsrYpuf3FNo-221" value="" style="rounded=0;whiteSpace=wrap;html=1;strokeColor=#FFFFFF;fillColor=#000000;" vertex="1" parent="1">
          <mxGeometry x="220" y="900" width="460" height="60" as="geometry" />
        </mxCell>
        <mxCell id="qPpUnZFkeBsrYpuf3FNo-222" value="" style="rounded=0;whiteSpace=wrap;html=1;strokeColor=#FFFFFF;fillColor=#000000;" vertex="1" parent="1">
          <mxGeometry x="220" y="1020" width="460" height="60" as="geometry" />
        </mxCell>
        <mxCell id="qPpUnZFkeBsrYpuf3FNo-223" value="ID" style="text;html=1;strokeColor=none;fillColor=none;align=center;verticalAlign=middle;whiteSpace=wrap;rounded=0;fontColor=#FFFFFF;fontSize=40;" vertex="1" parent="1">
          <mxGeometry x="120" y="850" width="250" height="50" as="geometry" />
        </mxCell>
        <mxCell id="qPpUnZFkeBsrYpuf3FNo-224" value="PW" style="text;html=1;strokeColor=none;fillColor=none;align=center;verticalAlign=middle;whiteSpace=wrap;rounded=0;fontColor=#FFFFFF;fontSize=40;" vertex="1" parent="1">
          <mxGeometry x="130" y="970" width="250" height="50" as="geometry" />
        </mxCell>
        <mxCell id="qPpUnZFkeBsrYpuf3FNo-227" value="&lt;font color=&quot;#ffffff&quot; style=&quot;font-size: 25px;&quot;&gt;ログイン&lt;/font&gt;" style="text;html=1;strokeColor=#FFFFFF;fillColor=none;align=center;verticalAlign=middle;whiteSpace=wrap;rounded=0;fontSize=25;fontStyle=0" vertex="1" parent="1">
          <mxGeometry x="350" y="1120" width="200" height="50" as="geometry" />
        </mxCell>
        <mxCell id="qPpUnZFkeBsrYpuf3FNo-229" value="&lt;font color=&quot;#ffffff&quot; style=&quot;font-size: 25px;&quot;&gt;新規登録&lt;/font&gt;" style="text;html=1;strokeColor=#FFFFFF;fillColor=none;align=center;verticalAlign=middle;whiteSpace=wrap;rounded=0;fontSize=25;fontStyle=0" vertex="1" parent="1">
          <mxGeometry x="350" y="1190" width="200" height="50" as="geometry" />
        </mxCell>
        <mxCell id="qPpUnZFkeBsrYpuf3FNo-230" value="" style="verticalLabelPosition=bottom;verticalAlign=top;html=1;shape=mxgraph.basic.drop;fillColor=#006600;aspect=fixed;" vertex="1" parent="1">
          <mxGeometry x="70" y="1340" width="98" height="140" as="geometry" />
        </mxCell>
        <mxCell id="qPpUnZFkeBsrYpuf3FNo-231" value="" style="verticalLabelPosition=bottom;verticalAlign=top;html=1;shape=mxgraph.basic.heart;fillColor=#006600;aspect=fixed;" vertex="1" parent="1">
          <mxGeometry x="220" y="1350" width="130" height="130" as="geometry" />
        </mxCell>
        <mxCell id="qPpUnZFkeBsrYpuf3FNo-232" value="" style="verticalLabelPosition=bottom;verticalAlign=top;html=1;shape=mxgraph.basic.star;aspect=fixed;fillColor=#006600;" vertex="1" parent="1">
          <mxGeometry x="380" y="1340" width="152.63" height="145" as="geometry" />
        </mxCell>
        <mxCell id="qPpUnZFkeBsrYpuf3FNo-233" value="" style="verticalLabelPosition=bottom;verticalAlign=top;html=1;shape=mxgraph.basic.heart;fillColor=#006600;aspect=fixed;" vertex="1" parent="1">
          <mxGeometry x="570" y="1350" width="130" height="130" as="geometry" />
        </mxCell>
        <mxCell id="qPpUnZFkeBsrYpuf3FNo-234" value="" style="verticalLabelPosition=bottom;verticalAlign=top;html=1;shape=mxgraph.basic.drop;fillColor=#006600;aspect=fixed;" vertex="1" parent="1">
          <mxGeometry x="740" y="1340" width="98" height="140" as="geometry" />
        </mxCell>
      </root>
    </mxGraphModel>
  </diagram>
  <diagram name="home" id="8mwIztiFpMKd-1sLFv2T">
    <mxGraphModel dx="3585" dy="1920" grid="1" gridSize="10" guides="0" tooltips="1" connect="1" arrows="1" fold="1" page="1" pageScale="1" pageWidth="900" pageHeight="1600" math="0" shadow="0">
      <root>
        <mxCell id="sh7cra6d7QGapN-L8cMm-0" />
        <mxCell id="sh7cra6d7QGapN-L8cMm-1" parent="sh7cra6d7QGapN-L8cMm-0" />
        <mxCell id="sh7cra6d7QGapN-L8cMm-2" value="" style="rounded=0;whiteSpace=wrap;html=1;movable=0;resizable=0;rotatable=0;deletable=0;editable=0;locked=1;connectable=0;fillColor=#000000;fontColor=#ffffff;strokeColor=#3A5431;" vertex="1" parent="sh7cra6d7QGapN-L8cMm-1">
          <mxGeometry width="900" height="1600" as="geometry" />
        </mxCell>
        <mxCell id="sh7cra6d7QGapN-L8cMm-4" value="" style="rounded=0;whiteSpace=wrap;html=1;fillColor=#006600;" vertex="1" parent="sh7cra6d7QGapN-L8cMm-1">
          <mxGeometry y="1540" width="900" height="60" as="geometry" />
        </mxCell>
        <mxCell id="sh7cra6d7QGapN-L8cMm-5" value="" style="rounded=0;whiteSpace=wrap;html=1;fillColor=#006600;fontColor=#ffffff;strokeColor=#2D7600;gradientColor=none;" vertex="1" parent="sh7cra6d7QGapN-L8cMm-1">
          <mxGeometry width="900" height="60" as="geometry" />
        </mxCell>
      </root>
    </mxGraphModel>
  </diagram>
</mxfile>
